<?xml version="1.0" encoding="utf-8"?>
<!-- Generator: Adobe Illustrator 19.0.0, SVG Export Plug-In . SVG Version: 6.00 Build 0)  -->
<svg version="1.1" id="Layer_1" xmlns="http://www.w3.org/2000/svg" xmlns:xlink="http://www.w3.org/1999/xlink" x="0px" y="0px"
	 width="281.2px" height="277.4px" viewBox="1440.5 241.5 281.2 277.4" style="enable-background:new 1440.5 241.5 281.2 277.4;"
	 xml:space="preserve">
<style type="text/css">
	.st0{fill:#FFFFFF;}
	.st1{fill:#9A0000;}
	.st2{fill:#ED0024;}
	.st3{fill:none;stroke:#32634F;stroke-width:12.5;stroke-miterlimit:10;}
	.st4{fill:#32634F;}
	.st5{opacity:0.7;fill:#FFFFFF;enable-background:new    ;}
</style>
<title>CP-Finallogo</title>
<g>
	<g id="Layer_1_1_">
		<path class="st0" d="M1712.4,402.1v72.8h0.6c0.4-1,0.8-2.1,1.2-3.1C1726,440,1722.6,417.1,1712.4,402.1z"/>
		<path class="st0" d="M1441.1,450.7l15.4-29.3l12.1-23l7.9-15C1455.9,394.1,1437,419.9,1441.1,450.7L1441.1,450.7z"/>
		<path class="st1" d="M1576.2,486.6c-5,5.9-10.6,11.3-16.6,16c-11.8,10.2-26.8,15.8-42.3,15.8c-33.5,0-65.9-25.4-74.7-60
			c-0.6-2.5-1.1-5.1-1.5-7.7c-4.1-30.9,14.8-56.6,35.4-67.3c6-3.3,12.7-5.1,19.6-5.2c13.7,0,25,9,26.6,30.3
			c5.1-9.8,13.6-14.1,23-14.1c11,0,23.2,5.9,32.4,15.8c-1.8,3-3.4,6.2-4.8,9.5C1565.9,437.5,1563.3,463.7,1576.2,486.6z"/>
		<path class="st1" d="M1581,480.4c-10.8-21.6-7.7-46.9,1.9-64.4C1594.5,432.3,1598.1,455.9,1581,480.4z"/>
		<path class="st2" d="M1714.2,471.8c-0.4,1.1-0.8,2.1-1.2,3.1c-11.7,29.6-38.6,44-65.9,44c-19.9,0-40.1-7.6-54.7-22.6
			c-4.6-4.7-8.5-10.1-11.4-15.9c-10.8-21.6-7.7-46.9,1.9-64.4c7.1-12.8,17.6-21.5,28.8-21.5c8.2,0,16.8,4.7,24.4,15.9
			c-0.8-19.6,15.6-30.2,34.3-30.2c15.2,0,31.9,7,42.1,21.8C1722.6,417.1,1726,440,1714.2,471.8z"/>
		<path class="st3" d="M1639.5,425.3c-23.8-84.7-41.2-102.3-88.7-160.1"/>
		<path class="st4" d="M1553.7,276.6c4.1-0.9,5.5-2.3,5.6-6.1c0.2-6.5,1.2-18.1-2.5-22.7c-6.4-8.1-15.5-9.2-19.3,2
			c-2.4,7.1,5.5,18.4,9,24.5C1548.5,277.8,1549.3,277.6,1553.7,276.6L1553.7,276.6z"/>
		<path class="st3" d="M1518.4,423.5c0,0,38.7-80.2,33.1-154.2"/>
		<path class="st5" d="M1488.3,419.3c4-6.6,4.4-13.6,1.5-18.3c-0.3-0.6-0.7-1.1-1.2-1.6c-1.2-1.3-2.6-2.3-4.2-3
			c-7.9-3.3-19,1.6-24.8,11s-4,19.6,3.9,22.9C1471.4,433.6,1482.5,428.7,1488.3,419.3z"/>
		<path class="st5" d="M1616.1,430.5c0.5-7.7-2.5-14.1-7.2-16.9c-0.6-0.3-1.2-0.6-1.8-0.9c-1.6-0.6-3.4-0.9-5.1-0.7
			c-8.5,0.8-16,10.3-16.7,21.3c-0.7,11,5.6,19.2,14.2,18.5S1615.4,441.5,1616.1,430.5z"/>
		<path class="st4" d="M1566.6,259.5c0,0,27.4,70.5,122.7,54.3C1689.3,313.9,1690.1,222.6,1566.6,259.5z"/>
	</g>
</g>
</svg>
