<svg xmlns="http://www.w3.org/2000/svg" viewBox="0 0 2000 300">
  <defs>
    <style>
      .cls-1{isolation:isolate;}
      .cls-2{fill:#9a0000;}
      .cls-3{fill:#ed0024;}
      .cls-4{fill:none;stroke:#32634f;stroke-miterlimit:10;stroke-width:12.5px;}
      .cls-5{fill:#32634f;}
      .cls-6{fill:#fff;opacity:0.7;mix-blend-mode:hard-light;}
      .cls-7{fill:#fff;}
    </style>
  </defs>
  <title>CP-Finallogo</title>
  <g class="cls-1">
    <g id="Layer_1" data-name="Layer 1">
      <path class="cls-7" d="M94.06,243.8c-19.34,0-36.26-3.07-50.33-8.57C15.39,223.81,0,200.07,0,161.83v-.44c0-17.58,4-32.31,12.31-45C28.57,91.28,58.24,77.88,96.48,77.88c17.58,0,32.74,2.64,46.59,7.69,27.47,10.55,44.83,31.21,48.35,64H133.84c-2.42-14.94-14.5-25.05-37.14-25.05-26.15,0-42,11.65-42,36.7v.22c0,24.18,15,35.82,40.88,35.82,24.84,0,36.48-10.55,38.46-27.25h57.8C187.46,218.75,153,243.8,94.06,243.8Z"/>
      <path class="cls-7" d="M209,223.53V71.28h51.86V134.8c9.5-16.2,25.8-26.24,47.84-26.58,32-.5,57.87,26.08,57.87,58.07v73.12H314.06V182.49c0-19.78-5.94-30.77-25.06-30.77-19.78,0-27.91,9.89-27.91,32.53v55.16H224.88A15.87,15.87,0,0,1,209,223.53Z"/>
      <path class="cls-7" d="M468.12,243.59c-32.09,0-53-6.6-65.93-18.47s-18-27.69-18-46.15a71.06,71.06,0,0,1,9.45-36c13-21.54,38.46-34.72,78.45-34.72,19.35,0,35.17,2.85,47.48,8.79,25.05,11.42,36.92,32.3,36.92,59.11v12.53H435.81c3.3,12.75,13.85,18.9,35.61,18.9,16.48,0,23.29-3.29,27.46-8.79h56.49C544.38,230.62,516.69,243.59,468.12,243.59Zm-31.43-80.66h67.25c-3.3-13.19-13.4-18.24-32.52-18.24C451.63,144.69,440.87,151.06,436.69,162.93Z"/>
      <path class="cls-7" d="M573.39,111.94H618l6.37,36.7c5-25.93,20-38.68,49.23-38.68h13.84v52.53H665.26c-10.11,0-17.58,1.32-22.86,3.3-10.55,4.61-13.84,14.94-13.84,33.4v40.22H589.27a15.88,15.88,0,0,1-15.88-15.88Z"/>
      <path class="cls-7" d="M1224.41,167.1v72.83h.62c.4-1,.79-2.08,1.16-3.14C1238,205,1234.62,182.07,1224.41,167.1Zm84.39-84.74h-84.39V156a55.13,55.13,0,0,1,5.55,6.79c9.3,13.41,17.34,37.54,2.88,76.45l-.27.74h43V202.15h35.15c55.39.21,81.09-19.35,81.09-58.48C1391.86,102.36,1368.35,82.36,1308.8,82.36Zm.21,78.69h-33.39V125.66h32.73c22.19,0,31.21,2.86,31.21,18.24C1339.56,156.64,1332.08,161.05,1309,161.05Z"/>
      <path class="cls-7" d="M1407.48,80.82c0-17.14,10.77-23.07,30.77-23.07s31,5.93,31,23.07c0,16.49-10.12,23.08-31,23.08C1416.27,103.9,1407.48,98,1407.48,80.82Zm9.67,34.51a139.2,139.2,0,0,0,20.87,2c3.3,0,6.6-.22,10.34-.44,7.69-.88,14.72-2.2,16.7-4v127h-54.29v-127C1411.65,113.79,1413.85,114.67,1417.15,115.33Z"/>
      <path class="cls-7" d="M1567.69,244.12c-20.21,0-36.7-2.64-49-8.14-25-11-35.82-31-35.82-58.68,0-13.84,3.52-25.71,10.33-36,13.85-20.66,39.78-32.52,75.16-32.52,52.75,0,82.86,23.29,86.59,60.65h-55.82c-2.64-13.19-11.87-19.78-30.77-19.78-21.1,0-31.86,9.23-31.86,27.69,0,17.15,10.55,25.5,31.64,25.5,19.78,0,28.57-7,31-20h55.82C1652.53,220.16,1624,244.12,1567.69,244.12Z"/>
      <path class="cls-7" d="M1722,208.51v31.43h-36a15.88,15.88,0,0,1-15.88-15.88V71.81H1722v89.45l54.5-48.79h63.08l-53.63,48.79,55.39,78.68h-60.44l-34.94-53Z"/>
      <path class="cls-7" d="M1835.17,198h56c3.74,9.23,12.75,12.53,34.51,12.53,18.24,0,24-4,24-9.45,0-1.76-1.1-3.3-3.07-4.4-3.74-2.41-14.51-3.51-37.15-4.39-17.14-.88-30.33-2.64-40.65-5.28-20.66-5.27-29-15.38-29-32.74,0-27.91,24.61-45.49,74.28-45.49,48.79,0,74.94,13.4,85,44.39h-53.4c-3.52-9.45-15.61-12.31-33-12.31-18.46,0-23.29,4-23.29,9,0,1.76,1.09,3.52,3.51,4.62,4.62,2.41,15.39,3.73,35.38,4.61,18.25.88,32.53,2.64,43.08,5.5,20.88,5.49,28.57,15.82,28.57,33.18a38.05,38.05,0,0,1-8.35,24.18c-11,13.84-33.63,22.2-71,22.2C1872.31,244.12,1841.55,231.59,1835.17,198Z"/>
      <path class="cls-7" d="M705,111.94h44.61l6.38,36.7c5.05-25.93,20-38.68,49.22-38.68H819.1v52.53H796.9c-10.1,0-17.58,1.32-22.85,3.3-10.55,4.61-13.85,14.94-13.85,33.4v40.22H720.92A15.88,15.88,0,0,1,705,223.53Z"/>
      <path class="cls-7" d="M952.81,111.94l-32.95,66.38-2,6.36-2-6.59-32.74-66.15H826.23l64,120.44-1.55,2.86c-4.39,8.34-8.35,13-14.71,14.94a49.8,49.8,0,0,1-13,1.53h-5a15.87,15.87,0,0,0-15.87,15.88v25.88h26.81c19.77,0,32.08-1.75,42.19-8.79,9.67-7,18.24-20,30.11-42.63l8.65-16.39a3.23,3.23,0,0,1-.14-.51c-5.61-22.07-.85-44.31,13.4-62.62,9-11.59,20.73-20,32.62-24l14-26.63Zm.25,103.79,15.43-29.3,12.12-23,7.9-15C967.86,159.09,949,184.88,953.06,215.73Z"/>
      <path class="cls-2" d="M1088.25,251.63a117.69,117.69,0,0,1-16.64,16.05,64.88,64.88,0,0,1-42.33,15.79c-33.45,0-65.94-25.39-74.74-60.05a68,68,0,0,1-1.48-7.69c-4.11-30.85,14.8-56.64,35.45-67.28a43.43,43.43,0,0,1,19.55-5.24c13.72,0,25,9,26.63,30.31,5.14-9.83,13.64-14.1,23-14.1,11,0,23.21,5.93,32.43,15.76a72,72,0,0,0-4.81,9.49C1077.86,202.46,1075.28,228.71,1088.25,251.63Z"/>
      <path class="cls-2" d="M1093,245.45c-10.85-21.64-7.73-46.94,1.94-64.44C1106.47,197.26,1110.09,220.86,1093,245.45Z"/>
      <path class="cls-3" d="M1226.19,236.79c-.37,1.06-.76,2.12-1.16,3.14-11.7,29.65-38.62,44-65.94,44-19.92,0-40.06-7.64-54.68-22.56A63.15,63.15,0,0,1,1093,245.45c-10.85-21.64-7.73-46.94,1.94-64.44,7.07-12.82,17.63-21.46,28.77-21.46,8.22,0,16.75,4.71,24.41,15.93-.85-19.64,15.57-30.17,34.26-30.17,15.22,0,31.94,7,42.05,21.79C1234.62,182.07,1238,205,1226.19,236.79Z"/>
      <path class="cls-4" d="M1151.51,190.31c-23.78-84.73-41.19-102.28-88.68-160.1"/>
      <path class="cls-5" d="M1065.66,41.62c4.06-.91,5.47-2.31,5.57-6.14.17-6.54,1.15-18.13-2.51-22.71-6.45-8.08-15.48-9.2-19.29,2-2.41,7.05,5.52,18.44,9,24.46,2.11,3.61,2.91,3.39,7.19,2.43Z"/>
      <path class="cls-4" d="M1030.41,188.51s38.65-80.19,33.13-154.18"/>
      <path class="cls-6" d="M1000.27,184.31c4.05-6.57,4.4-13.57,1.54-18.32a11.06,11.06,0,0,0-1.19-1.62,11.29,11.29,0,0,0-4.21-3c-7.92-3.3-19,1.63-24.78,11s-4,19.65,3.87,22.95S994.5,193.69,1000.27,184.31Z"/>
      <path class="cls-6" d="M1128.07,195.5c.49-7.7-2.47-14.06-7.22-16.91a11.2,11.2,0,0,0-1.81-.88,11.4,11.4,0,0,0-5.14-.68c-8.53.79-16,10.34-16.73,21.33s5.64,19.25,14.17,18.47S1127.37,206.49,1128.07,195.5Z"/>
      <path class="cls-5" d="M1078.62,24.55S1106,95.09,1201.3,78.86C1201.3,78.86,1202.13-12.43,1078.62,24.55Z"/>
    </g>
  </g>
</svg>